# xmcd CD database file generated by Grip 3.0.0
# 
# Track frame offsets:
#       150
#       17467
#       35227
#       69271
#       84166
#       98019
#       114601
#       128431
#       144665
#       163598
#       192503
#       209731
#       225036
# 
# Disc length: 3380 seconds
# 
# Revision: 2
# Processed by: cddbd v1.4PL0 Copyright (c) Steve Scherf et al.
# Submitted via: Grip 3.0.0
# 
DISCID=a30d320d
DTITLE=Shlomi Saranga - Greek Breeze
DYEAR=2001
DGENRE=Other
TTITLE0=Mimuleta
TTITLE1=Mahrozet shketim
TTITLE2=Mahrozet
TTITLE3=Mia vardia stin ethines
TTITLE4=Hopa Hopa
TTITLE5=Ana epogamoma
TTITLE6=Mahrozet 2
TTITLE7=Ego ima aetos
TTITLE8=Mahrozet smechim
TTITLE9=Apoga apoga
TTITLE10=Peatgos
TTITLE11=Mix
TTITLE12=Mix2
EXTD=ISRAELI SINGER
EXTT0=
EXTT1=
EXTT2=
EXTT3=
EXTT4=
EXTT5=
EXTT6=
EXTT7=
EXTT8=
EXTT9=
EXTT10=
EXTT11=
EXTT12=
PLAYORDER=
